<svg width="102" height="103" viewBox="0 0 102 103" fill="none" xmlns="http://www.w3.org/2000/svg">
<g id="Group 2218" filter="url(#filter0_d_80_4737)">
<line id="Line 82" x1="86" y1="84.5" x2="16" y2="84.5" stroke="#F4E1CE"/>
<line id="Line 93" y1="-0.5" x2="70" y2="-0.5" transform="matrix(0 -1 -1 0 16.0002 84)" stroke="#F4E1CE"/>
<g id="Group 2223">
<g id="Group 2220">
<rect id="Rectangle 2188" width="6.36364" height="45.1818" transform="matrix(1 0 0 -1 62.1364 82.4091)" fill="#FC8A7A"/>
<rect id="Rectangle 2189" width="6.36364" height="39.6835" transform="matrix(1 0 0 -1 55.7727 82.4091)" fill="#802507"/>
</g>
<g id="Group 2222">
<rect id="Rectangle 2187" width="6.36364" height="28.5165" transform="matrix(1 0 0 -1 73.2727 82.4091)" fill="#00B29A"/>
<rect id="Rectangle 2194" width="6.36364" height="57.2727" transform="matrix(1 0 0 -1 79.6364 82.4091)" fill="#6259CD"/>
</g>
<g id="Group 2221">
<rect id="Rectangle 2191" width="6.36364" height="57.2727" transform="matrix(1 0 0 -1 27.1364 82.4091)" fill="#FC8A7A"/>
<rect id="Rectangle 2193" width="6.36364" height="51.0422" transform="matrix(1 0 0 -1 20.773 82.4091)" fill="#802507"/>
</g>
<g id="Group 2219">
<rect id="Rectangle 2190" width="6.36364" height="22.9091" transform="matrix(1 0 0 -1 44.6364 82.4091)" fill="#6259CD"/>
<rect id="Rectangle 2192" width="6.36364" height="6.02871" transform="matrix(1 0 0 -1 38.2727 82.4091)" fill="#00B29A"/>
</g>
</g>
</g>
<defs>
<filter id="filter0_d_80_4737" x="0" y="0" width="102" height="103" filterUnits="userSpaceOnUse" color-interpolation-filters="sRGB">
<feFlood flood-opacity="0" result="BackgroundImageFix"/>
<feColorMatrix in="SourceAlpha" type="matrix" values="0 0 0 0 0 0 0 0 0 0 0 0 0 0 0 0 0 0 127 0" result="hardAlpha"/>
<feOffset dy="2"/>
<feGaussianBlur stdDeviation="8"/>
<feComposite in2="hardAlpha" operator="out"/>
<feColorMatrix type="matrix" values="0 0 0 0 0 0 0 0 0 0 0 0 0 0 0 0 0 0 0.1 0"/>
<feBlend mode="normal" in2="BackgroundImageFix" result="effect1_dropShadow_80_4737"/>
<feBlend mode="normal" in="SourceGraphic" in2="effect1_dropShadow_80_4737" result="shape"/>
</filter>
</defs>
</svg>
