<svg width="32" height="32" viewBox="0 0 32 32" fill="none" xmlns="http://www.w3.org/2000/svg">
<g id="vuesax/outline/close-circle">
<g id="close-circle">
<path id="Vector" d="M16 30.3333C8.09335 30.3333 1.66669 23.9067 1.66669 16C1.66669 8.09334 8.09335 1.66667 16 1.66667C23.9067 1.66667 30.3334 8.09334 30.3334 16C30.3334 23.9067 23.9067 30.3333 16 30.3333ZM16 3.66667C9.20002 3.66667 3.66669 9.20001 3.66669 16C3.66669 22.8 9.20002 28.3333 16 28.3333C22.8 28.3333 28.3334 22.8 28.3334 16C28.3334 9.20001 22.8 3.66667 16 3.66667Z" fill="#292D32"/>
<path id="Vector_2" d="M12.2266 20.7733C11.9733 20.7733 11.72 20.68 11.52 20.48C11.1333 20.0933 11.1333 19.4533 11.52 19.0667L19.0666 11.52C19.4533 11.1333 20.0933 11.1333 20.48 11.52C20.8666 11.9067 20.8666 12.5467 20.48 12.9333L12.9333 20.48C12.7466 20.68 12.48 20.7733 12.2266 20.7733Z" fill="#292D32"/>
<path id="Vector_3" d="M19.7733 20.7733C19.52 20.7733 19.2666 20.68 19.0666 20.48L11.52 12.9333C11.1333 12.5467 11.1333 11.9067 11.52 11.52C11.9066 11.1333 12.5466 11.1333 12.9333 11.52L20.48 19.0667C20.8666 19.4533 20.8666 20.0933 20.48 20.48C20.28 20.68 20.0266 20.7733 19.7733 20.7733Z" fill="#292D32"/>
</g>
</g>
</svg>
