<svg width="20" height="20" viewBox="0 0 20 20" fill="none" xmlns="http://www.w3.org/2000/svg">
<g id="vuesax/linear/more">
<g id="more">
<path id="Vector" d="M4.16667 8.33333C3.25 8.33333 2.5 9.08333 2.5 10C2.5 10.9167 3.25 11.6667 4.16667 11.6667C5.08333 11.6667 5.83333 10.9167 5.83333 10C5.83333 9.08333 5.08333 8.33333 4.16667 8.33333Z" stroke="black"/>
<path id="Vector_2" d="M15.8337 8.33333C14.917 8.33333 14.167 9.08333 14.167 10C14.167 10.9167 14.917 11.6667 15.8337 11.6667C16.7503 11.6667 17.5003 10.9167 17.5003 10C17.5003 9.08333 16.7503 8.33333 15.8337 8.33333Z" stroke="black"/>
<path id="Vector_3" d="M9.99967 8.33333C9.08301 8.33333 8.33301 9.08333 8.33301 10C8.33301 10.9167 9.08301 11.6667 9.99967 11.6667C10.9163 11.6667 11.6663 10.9167 11.6663 10C11.6663 9.08333 10.9163 8.33333 9.99967 8.33333Z" stroke="black"/>
</g>
</g>
</svg>
