<svg width="70" height="70" viewBox="0 0 70 70" fill="none" xmlns="http://www.w3.org/2000/svg">
<path d="M35 0C41.6417 0 48.1462 1.88975 53.7539 5.44852C59.3617 9.0073 63.8411 14.0882 66.6689 20.0977C69.4968 26.1073 70.5564 32.7974 69.724 39.3867C68.8916 45.9759 66.2015 52.1924 61.968 57.3098C57.7344 62.4273 52.1322 66.2346 45.8156 68.287C39.499 70.3394 32.7288 70.5521 26.2959 68.9004C19.8629 67.2487 14.0326 63.8007 9.4861 58.9592C4.93958 54.1176 1.86447 48.0824 0.619947 41.5583L10.934 39.5908C11.8051 44.1576 13.9577 48.3823 17.1403 51.7714C20.3228 55.1605 24.404 57.5741 28.9071 58.7303C33.4102 59.8865 38.1493 59.7376 42.5709 58.3009C46.9925 56.8642 50.9141 54.1991 53.8776 50.6169C56.8411 47.0347 58.7241 42.6832 59.3068 38.0707C59.8895 33.4582 59.1478 28.7751 57.1683 24.5684C55.1887 20.3617 52.0532 16.8051 48.1278 14.314C44.2023 11.8228 39.6492 10.5 35 10.5V0Z" fill="#00B29A"/>
</svg>
