<svg width="102" height="102" viewBox="0 0 102 102" fill="none" xmlns="http://www.w3.org/2000/svg">
<g filter="url(#filter0_d_366_1123)">
<circle cx="51" cy="49" r="15.5556" fill="#F4E1CE"/>
<path d="M51 19.8333C67.1083 19.8333 80.1667 32.8917 80.1667 49C80.1667 65.1083 67.1083 78.1666 51 78.1666C34.8917 78.1666 21.8333 65.1083 21.8333 49C21.8333 32.8917 34.8917 19.8333 51 19.8333ZM51 69.4166C62.2758 69.4166 71.4167 60.2758 71.4167 49C71.4167 37.7241 62.2758 28.5833 51 28.5833C39.7242 28.5833 30.5833 37.7241 30.5833 49C30.5833 60.2758 39.7242 69.4166 51 69.4166Z" fill="#6259CD"/>
<path d="M51 19.8333C56.5347 19.8333 61.9552 21.4081 66.6283 24.3737C71.3014 27.3394 75.0342 31.5734 77.3908 36.5814C79.7474 41.5894 80.6304 47.1644 79.9367 52.6555C79.243 58.1466 77.0013 63.3269 73.4733 67.5915C69.9454 71.8561 65.2768 75.0288 60.013 76.7391C54.7492 78.4494 49.1074 78.6267 43.7466 77.2503C38.3857 75.8739 33.5272 73.0005 29.7384 68.9659C25.9497 64.9313 23.3871 59.9019 22.35 54.4653L30.945 52.8257C31.6709 56.6313 33.4648 60.1519 36.1169 62.9761C38.769 65.8004 42.17 67.8117 45.9226 68.7752C49.6752 69.7387 53.6244 69.6146 57.3091 68.4174C60.9938 67.2201 64.2618 64.9992 66.7313 62.014C69.2009 59.0288 70.7701 55.4026 71.2557 51.5588C71.7413 47.7151 71.1232 43.8125 69.4736 40.307C67.824 36.8014 65.211 33.8376 61.9398 31.7616C58.6686 29.6856 54.8743 28.5833 51 28.5833L51 19.8333Z" fill="#00B29A"/>
<path d="M51 19.8333C58.1024 19.8333 64.9607 22.4248 70.2883 27.1217C75.6158 31.8186 79.0465 38.298 79.9367 45.3444C80.8269 52.3908 79.1153 59.5198 75.1232 65.3941C71.1311 71.2683 65.1327 75.484 58.2535 77.2503L56.0774 68.7752C60.8929 67.5388 65.0917 64.5878 67.8862 60.4758C70.6807 56.3639 71.8788 51.3735 71.2557 46.4411C70.6326 41.5086 68.2311 36.973 64.5018 33.6852C60.7725 30.3974 55.9717 28.5833 51 28.5833V19.8333Z" fill="#FC8A7A"/>
<g filter="url(#filter1_d_366_1123)">
<path d="M51 19.8333C57.1594 19.8333 63.1607 21.7832 68.1437 25.4036C73.1268 29.024 76.8358 34.129 78.7392 39.987L70.4174 42.6909C69.0851 38.5903 66.4888 35.0168 63.0006 32.4825C59.5125 29.9482 55.3116 28.5833 51 28.5833V19.8333Z" fill="#802507"/>
</g>
<g opacity="0.2">
<path d="M51 14C70.33 14 86 29.67 86 49C86 68.33 70.33 84 51 84C31.67 84 16 68.33 16 49C16 29.67 31.67 14 51 14ZM51 73.5C64.531 73.5 75.5 62.531 75.5 49C75.5 35.469 64.531 24.5 51 24.5C37.469 24.5 26.5 35.469 26.5 49C26.5 62.531 37.469 73.5 51 73.5Z" fill="#6259CD"/>
<path d="M51 14C57.6417 14 64.1462 15.8897 69.7539 19.4485C75.3617 23.0073 79.8411 28.0882 82.6689 34.0977C85.4968 40.1073 86.5564 46.7974 85.724 53.3867C84.8916 59.9759 82.2015 66.1924 77.968 71.3098C73.7344 76.4273 68.1322 80.2346 61.8156 82.287C55.499 84.3394 48.7288 84.5521 42.2959 82.9004C35.8629 81.2487 30.0326 77.8007 25.4861 72.9592C20.9396 68.1176 17.8645 62.0824 16.6199 55.5583L26.934 53.5908C27.8051 58.1576 29.9577 62.3823 33.1403 65.7714C36.3228 69.1605 40.404 71.5741 44.9071 72.7303C49.4102 73.8865 54.1493 73.7376 58.5709 72.3009C62.9925 70.8642 66.9141 68.1991 69.8776 64.6169C72.8411 61.0347 74.7241 56.6832 75.3068 52.0707C75.8895 47.4582 75.1478 42.7751 73.1683 38.5684C71.1887 34.3617 68.0532 30.8051 64.1278 28.314C60.2023 25.8228 55.6492 24.5 51 24.5V14Z" fill="#00B29A"/>
<path d="M51 14C59.5228 14 67.7528 17.1099 74.1459 22.7461C80.539 28.3824 84.6558 36.1577 85.724 44.6133C86.7922 53.069 84.7384 61.6238 79.9478 68.6729C75.1573 75.722 67.9592 80.7809 59.7041 82.9004L57.0929 72.7303C62.8715 71.2466 67.9101 67.7054 71.2635 62.771C74.6169 57.8367 76.0545 51.8483 75.3068 45.9293C74.5591 40.0104 71.6773 34.5677 67.2021 30.6223C62.727 26.6769 56.966 24.5 51 24.5V14Z" fill="#FC8A7A"/>
<g filter="url(#filter2_d_366_1123)">
<path d="M51 14C58.3913 14 65.5928 16.3399 71.5725 20.6844C77.5522 25.0289 82.0029 31.1549 84.287 38.1844L74.3009 41.4291C72.7021 36.5084 69.5865 32.2202 65.4007 29.1791C61.215 26.1379 56.1739 24.5 51 24.5V14Z" fill="#802507"/>
</g>
</g>
</g>
<defs>
<filter id="filter0_d_366_1123" x="0" y="0" width="102" height="102" filterUnits="userSpaceOnUse" color-interpolation-filters="sRGB">
<feFlood flood-opacity="0" result="BackgroundImageFix"/>
<feColorMatrix in="SourceAlpha" type="matrix" values="0 0 0 0 0 0 0 0 0 0 0 0 0 0 0 0 0 0 127 0" result="hardAlpha"/>
<feOffset dy="2"/>
<feGaussianBlur stdDeviation="8"/>
<feComposite in2="hardAlpha" operator="out"/>
<feColorMatrix type="matrix" values="0 0 0 0 0 0 0 0 0 0 0 0 0 0 0 0 0 0 0.1 0"/>
<feBlend mode="normal" in2="BackgroundImageFix" result="effect1_dropShadow_366_1123"/>
<feBlend mode="normal" in="SourceGraphic" in2="effect1_dropShadow_366_1123" result="shape"/>
</filter>
<filter id="filter1_d_366_1123" x="46" y="16.8333" width="37.7392" height="32.8575" filterUnits="userSpaceOnUse" color-interpolation-filters="sRGB">
<feFlood flood-opacity="0" result="BackgroundImageFix"/>
<feColorMatrix in="SourceAlpha" type="matrix" values="0 0 0 0 0 0 0 0 0 0 0 0 0 0 0 0 0 0 127 0" result="hardAlpha"/>
<feOffset dy="2"/>
<feGaussianBlur stdDeviation="2.5"/>
<feComposite in2="hardAlpha" operator="out"/>
<feColorMatrix type="matrix" values="0 0 0 0 0.501961 0 0 0 0 0.145098 0 0 0 0 0.027451 0 0 0 0.25 0"/>
<feBlend mode="normal" in2="BackgroundImageFix" result="effect1_dropShadow_366_1123"/>
<feBlend mode="normal" in="SourceGraphic" in2="effect1_dropShadow_366_1123" result="shape"/>
</filter>
<filter id="filter2_d_366_1123" x="46" y="11" width="43.287" height="37.4291" filterUnits="userSpaceOnUse" color-interpolation-filters="sRGB">
<feFlood flood-opacity="0" result="BackgroundImageFix"/>
<feColorMatrix in="SourceAlpha" type="matrix" values="0 0 0 0 0 0 0 0 0 0 0 0 0 0 0 0 0 0 127 0" result="hardAlpha"/>
<feOffset dy="2"/>
<feGaussianBlur stdDeviation="2.5"/>
<feComposite in2="hardAlpha" operator="out"/>
<feColorMatrix type="matrix" values="0 0 0 0 0.501961 0 0 0 0 0.145098 0 0 0 0 0.027451 0 0 0 0.25 0"/>
<feBlend mode="normal" in2="BackgroundImageFix" result="effect1_dropShadow_366_1123"/>
<feBlend mode="normal" in="SourceGraphic" in2="effect1_dropShadow_366_1123" result="shape"/>
</filter>
</defs>
</svg>
