<svg width="172" height="100" viewBox="0 0 172 100" fill="none" xmlns="http://www.w3.org/2000/svg">
<g id="Window">
<path id="Vector" opacity="0.2" d="M164.964 12.5972V95.2662C164.964 96.5217 164.465 97.7257 163.578 98.6135C162.69 99.5013 161.486 100 160.23 100H4.73378C3.47831 100 2.27426 99.5013 1.3865 98.6135C0.498741 97.7257 0 96.5217 0 95.2662V12.5972C-1.34805e-06 11.976 0.122513 11.3609 0.360528 10.7872C0.598544 10.2134 0.94739 9.69219 1.38709 9.2534C1.82679 8.81461 2.34872 8.46684 2.92299 8.23002C3.49726 7.9932 4.1126 7.87197 4.73378 7.87326H160.23C160.851 7.87197 161.467 7.9932 162.041 8.23002C162.615 8.46684 163.137 8.81461 163.577 9.2534C164.017 9.69219 164.366 10.2134 164.604 10.7872C164.842 11.3609 164.964 11.976 164.964 12.5972Z" fill="black"/>
<path id="Vector_2" d="M171.853 4.72396V87.393C171.853 88.0146 171.731 88.6302 171.493 89.2045C171.255 89.7788 170.906 90.3007 170.467 90.7403C170.027 91.1798 169.505 91.5285 168.931 91.7664C168.357 92.0043 167.741 92.1268 167.119 92.1268H11.6229C10.3674 92.1268 9.16334 91.628 8.27558 90.7403C7.38783 89.8525 6.88908 88.6484 6.88908 87.393V4.72396C6.88908 4.10277 7.0116 3.48769 7.24961 2.91391C7.48763 2.34013 7.83647 1.81894 8.27618 1.38015C8.71588 0.941361 9.2378 0.59359 9.81207 0.356769C10.3863 0.119949 11.0017 -0.00128388 11.6229 1.02526e-05H167.119C167.741 -0.00128388 168.356 0.119949 168.93 0.356769C169.504 0.59359 170.026 0.941361 170.466 1.38015C170.906 1.81894 171.255 2.34013 171.493 2.91391C171.731 3.48769 171.853 4.10277 171.853 4.72396Z" fill="#FC8A7A"/>
<path id="Vector_3" opacity="0.5" d="M171.853 15.9827V87.452C171.853 88.0737 171.731 88.6892 171.493 89.2636C171.255 89.8379 170.906 90.3597 170.467 90.7993C170.027 91.2389 169.505 91.5876 168.931 91.8255C168.357 92.0634 167.741 92.1858 167.119 92.1858H11.6229C10.3674 92.1858 9.16334 91.6871 8.27558 90.7993C7.38783 89.9116 6.88908 88.7075 6.88908 87.452V15.9827H171.853Z" fill="white"/>
<path id="Vector_4" d="M128.767 28.7078H16.8389V47.9382H128.767V28.7078Z" fill="white"/>
<path id="Vector_5" d="M28.4519 38.077V40.8228H27.5859V38.1754C27.5859 37.1912 27.1233 36.7779 26.3065 36.7779C26.0973 36.7618 25.8872 36.7923 25.6913 36.8672C25.4953 36.9422 25.3185 37.0597 25.1735 37.2113C25.0285 37.3629 24.919 37.5448 24.8528 37.7438C24.7866 37.9429 24.7655 38.1542 24.7909 38.3624V40.8228H23.9248V34.1404H24.7909V36.7287C24.9974 36.4878 25.2566 36.2977 25.5485 36.1731C25.8403 36.0485 26.1569 35.9928 26.4738 36.0103C26.747 35.9875 27.0219 36.0261 27.2783 36.1233C27.5348 36.2204 27.7662 36.3737 27.9558 36.5718C28.1454 36.7699 28.2884 37.0078 28.3742 37.2682C28.46 37.5287 28.4866 37.805 28.4519 38.077Z" fill="#263238"/>
<path id="Vector_6" d="M32.733 40.5866C32.4357 40.8178 32.0661 40.9364 31.6898 40.9212C31.4873 40.9445 31.2821 40.922 31.0894 40.8552C30.8968 40.7885 30.7217 40.6792 30.577 40.5355C30.4324 40.3918 30.322 40.2174 30.2539 40.0252C30.1859 39.833 30.162 39.628 30.184 39.4253V36.8074H29.3672V36.0988H30.184V35.0556H31.0403V36.0988H32.4082V36.8074H31.0403V39.3957C31.0251 39.4997 31.0336 39.6057 31.0651 39.7059C31.0966 39.8061 31.1503 39.898 31.2221 39.9746C31.294 40.0512 31.3822 40.1106 31.4802 40.1484C31.5782 40.1862 31.6835 40.2014 31.7882 40.1929C32.0339 40.1982 32.2739 40.1182 32.4673 39.9665L32.733 40.5866Z" fill="#263238"/>
<path id="Vector_7" d="M36.3449 40.5866C36.046 40.8149 35.6775 40.933 35.3016 40.9212C35.0987 40.9442 34.8932 40.9216 34.7002 40.8549C34.5072 40.7881 34.3316 40.679 34.1862 40.5356C34.0409 40.3921 33.9295 40.2179 33.8602 40.0258C33.791 39.8337 33.7656 39.6285 33.786 39.4253V36.8074H32.9397V36.0988H33.7467V35.0556H34.6127V36.0988H35.9807V36.8074H34.6127V39.3957C34.5976 39.4997 34.6061 39.6057 34.6376 39.7059C34.6691 39.8061 34.7227 39.898 34.7946 39.9746C34.8665 40.0512 34.9547 40.1106 35.0527 40.1484C35.1507 40.1862 35.256 40.2014 35.3607 40.1929C35.6062 40.1966 35.8456 40.1168 36.0398 39.9665L36.3449 40.5866Z" fill="#263238"/>
<path id="Vector_8" d="M42.3285 38.4313C42.3467 38.754 42.297 39.077 42.1827 39.3794C42.0684 39.6818 41.8919 39.9569 41.6647 40.1869C41.4375 40.4168 41.1646 40.5966 40.8636 40.7146C40.5627 40.8327 40.2403 40.8862 39.9173 40.872C39.5978 40.8873 39.2793 40.8245 38.9895 40.689C38.6997 40.5536 38.4473 40.3495 38.2541 40.0945V42.5549H37.3881V36.0398H38.2147V36.7976C38.4131 36.5371 38.6716 36.3285 38.9681 36.1897C39.2646 36.0509 39.5903 35.9859 39.9173 36.0004C40.2398 35.9847 40.562 36.037 40.8629 36.1539C41.1639 36.2708 41.4369 36.4496 41.6643 36.6788C41.8917 36.9081 42.0683 37.1825 42.1827 37.4844C42.2972 37.7863 42.3468 38.1089 42.3285 38.4313ZM41.4526 38.4313C41.4372 38.1178 41.3302 37.8158 41.1448 37.5625C40.9595 37.3093 40.7039 37.116 40.4097 37.0065C40.1156 36.8971 39.7958 36.8763 39.49 36.9468C39.1842 37.0173 38.9058 37.176 38.6892 37.4032C38.4727 37.6303 38.3275 37.916 38.2717 38.2249C38.216 38.5337 38.252 38.8521 38.3754 39.1407C38.4988 39.4293 38.7041 39.6753 38.9659 39.8483C39.2278 40.0214 39.5346 40.1138 39.8484 40.1142C40.0671 40.1188 40.2844 40.0778 40.4863 39.9938C40.6883 39.9098 40.8706 39.7847 41.0215 39.6263C41.1724 39.468 41.2887 39.28 41.3629 39.0742C41.4371 38.8685 41.4677 38.6495 41.4526 38.4313Z" fill="#263238"/>
<path id="Vector_9" d="M42.919 40.311L43.2831 39.632C43.7818 39.9537 44.3628 40.1246 44.9562 40.124C45.7534 40.124 46.088 39.8878 46.088 39.4745C46.088 38.4116 43.0765 39.3367 43.0765 37.4373C43.0765 36.5811 43.8441 36.0103 45.0448 36.0103C45.649 35.9991 46.2458 36.1449 46.7769 36.4334L46.4128 37.1224C45.9994 36.8669 45.5207 36.737 45.0349 36.7484C44.2771 36.7484 43.913 37.0239 43.913 37.3979C43.913 38.5297 46.9344 37.6046 46.9344 39.4646C46.9344 40.3209 46.1372 40.872 44.8775 40.872C44.1833 40.8849 43.5011 40.6895 42.919 40.311Z" fill="#263238"/>
<path id="Vector_10" d="M47.6331 36.6499C47.6304 36.5691 47.6443 36.4885 47.674 36.4132C47.7037 36.338 47.7485 36.2696 47.8057 36.2124C47.8629 36.1552 47.9313 36.1103 48.0066 36.0806C48.0818 36.0509 48.1624 36.037 48.2433 36.0398C48.3229 36.0383 48.402 36.0533 48.4756 36.0837C48.5492 36.1141 48.6158 36.1593 48.6711 36.2165C48.7265 36.2738 48.7695 36.3418 48.7975 36.4163C48.8255 36.4909 48.8378 36.5704 48.8338 36.6499C48.8364 36.7296 48.8231 36.809 48.7948 36.8835C48.7664 36.9579 48.7235 37.026 48.6685 37.0837C48.6135 37.1414 48.5476 37.1876 48.4746 37.2196C48.4016 37.2516 48.323 37.2687 48.2433 37.27C48.1623 37.27 48.0822 37.2539 48.0075 37.2226C47.9328 37.1913 47.8651 37.1455 47.8083 37.0878C47.7515 37.0301 47.7068 36.9616 47.6767 36.8865C47.6466 36.8113 47.6318 36.7309 47.6331 36.6499ZM47.6331 40.2815C47.6304 40.2006 47.6443 40.12 47.674 40.0448C47.7037 39.9695 47.7485 39.9011 47.8057 39.8439C47.8629 39.7867 47.9313 39.7418 48.0066 39.7122C48.0818 39.6825 48.1624 39.6686 48.2433 39.6713C48.3229 39.6699 48.402 39.6848 48.4756 39.7152C48.5492 39.7456 48.6158 39.7908 48.6711 39.8481C48.7265 39.9053 48.7695 39.9733 48.7975 40.0479C48.8255 40.1224 48.8378 40.2019 48.8338 40.2815C48.8378 40.3615 48.8255 40.4414 48.7976 40.5165C48.7697 40.5916 48.7269 40.6602 48.6716 40.7182C48.6164 40.7762 48.5499 40.8224 48.4763 40.8539C48.4027 40.8854 48.3234 40.9016 48.2433 40.9015C48.1593 40.9032 48.0759 40.8872 47.9985 40.8546C47.9211 40.822 47.8514 40.7735 47.7939 40.7123C47.7364 40.6511 47.6923 40.5785 47.6646 40.4992C47.6369 40.4199 47.6262 40.3357 47.6331 40.252V40.2815Z" fill="#263238"/>
<path id="Vector_11" d="M52.4063 33.2448H53.1837L50.2313 41.7183H49.444L52.4063 33.2448Z" fill="#263238"/>
<path id="Vector_12" d="M54.9651 33.2448H55.7425L52.7901 41.7183H52.0126L54.9651 33.2448Z" fill="#263238"/>
<path id="Vector_13" d="M62.1986 40.8228V36.2268L59.9154 40.0551H59.5119L57.2385 36.2563V40.8228H56.3724V34.5242H57.1105L59.7382 38.9529L62.3265 34.5242H63.0647V40.8228H62.1986Z" fill="#263238"/>
<path id="Vector_14" d="M67.3851 38.6183V40.8031H66.4895V38.6183L63.9898 34.5143H64.9739L66.9422 37.8309L68.9696 34.5143H69.8652L67.3851 38.6183Z" fill="#263238"/>
<path id="Vector_15" d="M70.6623 34.5242H71.5678V40.0355H74.9729V40.8228H70.6623V34.5242Z" fill="#263238"/>
<path id="Vector_16" d="M76.0063 34.5242H76.9117V40.8228H76.0063V34.5242Z" fill="#263238"/>
<path id="Vector_17" d="M84.2142 34.5242V40.8228H83.476L79.6969 36.1185V40.8228H78.8013V34.5242H79.5394L83.3087 39.2186V34.5242H84.2142Z" fill="#263238"/>
<path id="Vector_18" d="M88.1508 38.0179L86.9993 39.1891V40.8228H86.084V34.5242H86.9796V38.0376L90.4045 34.5242H91.3886L88.7019 37.3585L91.5559 40.8228H90.5029L88.1508 38.0179Z" fill="#263238"/>
<path id="Vector_19" d="M94.41 33.2448H95.1875L92.235 41.7183H91.4477L94.41 33.2448Z" fill="#263238"/>
<path id="Vector_20" d="M20.3819 8.99519H20.9133V10.9635C20.3785 11.4087 19.6996 11.6432 19.004 11.6229C18.6448 11.6449 18.2848 11.5931 17.9463 11.4707C17.6078 11.3483 17.298 11.158 17.0358 10.9114C16.7736 10.6648 16.5647 10.3671 16.4219 10.0367C16.2791 9.70632 16.2055 9.35021 16.2055 8.99028C16.2055 8.63035 16.2791 8.27422 16.4219 7.94383C16.5647 7.61344 16.7736 7.31578 17.0358 7.06916C17.298 6.82255 17.6078 6.63219 17.9463 6.50983C18.2848 6.38746 18.6448 6.33568 19.004 6.35766C19.3665 6.33428 19.7298 6.38895 20.0694 6.51798C20.4089 6.64701 20.7168 6.8474 20.9723 7.10561L20.6279 7.45007C20.4247 7.24674 20.1817 7.08758 19.9141 6.98258C19.6466 6.87758 19.3602 6.82901 19.0729 6.8399C18.7783 6.81996 18.4827 6.86076 18.2045 6.9598C17.9263 7.05883 17.6714 7.21399 17.4557 7.41562C17.24 7.61726 17.0679 7.86107 16.9503 8.13195C16.8327 8.40282 16.7721 8.69498 16.7721 8.99028C16.7721 9.28558 16.8327 9.57771 16.9503 9.84859C17.0679 10.1195 17.24 10.3633 17.4557 10.5649C17.6714 10.7665 17.9263 10.9217 18.2045 11.0207C18.4827 11.1198 18.7783 11.1606 19.0729 11.1407C19.554 11.1542 20.0267 11.0128 20.4212 10.7371L20.3819 8.99519Z" fill="white"/>
<path id="Vector_21" d="M25.7357 9.8022H22.4781C22.4894 9.99231 22.5381 10.1783 22.6214 10.3496C22.7048 10.5208 22.8211 10.6739 22.9637 10.8001C23.1064 10.9263 23.2725 11.023 23.4526 11.0849C23.6328 11.1467 23.8233 11.1723 24.0134 11.1603C24.2373 11.1677 24.46 11.1257 24.6659 11.0372C24.8717 10.9488 25.0555 10.8161 25.2042 10.6486L25.4995 10.993C25.2186 11.2843 24.8584 11.4868 24.4636 11.5753C24.0687 11.6638 23.6566 11.6344 23.2783 11.4909C22.9 11.3473 22.5721 11.0958 22.3354 10.7676C22.0987 10.4395 21.9635 10.049 21.9467 9.64473C21.9467 9.14098 22.1468 8.65785 22.503 8.30164C22.8592 7.94543 23.3423 7.74532 23.8461 7.74532C24.3498 7.74532 24.833 7.94543 25.1892 8.30164C25.5454 8.65785 25.7455 9.14098 25.7455 9.64473C25.7455 9.64473 25.7357 9.74315 25.7357 9.8022ZM22.4781 9.41838H25.2337C25.2337 9.05296 25.0886 8.70252 24.8302 8.44412C24.5718 8.18573 24.2213 8.04056 23.8559 8.04056C23.4905 8.04056 23.14 8.18573 22.8817 8.44412C22.6233 8.70252 22.4781 9.05296 22.4781 9.41838Z" fill="white"/>
<path id="Vector_22" d="M28.8653 11.3572C28.6283 11.538 28.3365 11.6318 28.0386 11.6229C27.8854 11.6398 27.7303 11.6223 27.5848 11.5715C27.4393 11.5208 27.3069 11.4382 27.1975 11.3297C27.088 11.2211 27.0042 11.0895 26.9522 10.9444C26.9002 10.7993 26.8813 10.6445 26.897 10.4911V8.10946H26.2081V7.6666H26.897V6.81037H27.4284V7.6666H28.6094V8.10946H27.4284V10.4321C27.4149 10.5253 27.4225 10.6204 27.4506 10.7103C27.4787 10.8002 27.5267 10.8827 27.5909 10.9516C27.6551 11.0206 27.734 11.0742 27.8217 11.1086C27.9094 11.1431 28.0037 11.1574 28.0976 11.1505C28.3101 11.1561 28.5171 11.0824 28.6783 10.9438L28.8653 11.3572Z" fill="white"/>
<path id="Vector_23" d="M31.8669 6.40688H32.4082V11.121H35.3115V11.5934H31.8669V6.40688Z" fill="white"/>
<path id="Vector_24" d="M35.9906 6.46592C35.9918 6.41681 36.0028 6.36842 36.0228 6.32353C36.0427 6.27865 36.0714 6.23815 36.107 6.20433C36.1427 6.17051 36.1846 6.14404 36.2305 6.12645C36.2764 6.10886 36.3253 6.10048 36.3744 6.10179C36.423 6.09914 36.4717 6.10628 36.5175 6.12277C36.5633 6.13927 36.6054 6.16478 36.6412 6.19781C36.6769 6.23085 36.7057 6.27073 36.7259 6.31509C36.746 6.35946 36.757 6.4074 36.7582 6.45609C36.7582 6.55788 36.7178 6.6555 36.6458 6.72748C36.5738 6.79946 36.4762 6.83991 36.3744 6.83991C36.2726 6.83991 36.175 6.79946 36.103 6.72748C36.031 6.6555 35.9906 6.55788 35.9906 6.45609V6.46592ZM36.1087 7.69612H36.6303V11.6327H36.1087V7.69612Z" fill="white"/>
<path id="Vector_25" d="M41.679 9.32982V11.5934H41.1574V9.37901C41.1801 9.21681 41.166 9.0516 41.1162 8.89558C41.0664 8.73956 40.9821 8.59673 40.8697 8.47766C40.7572 8.35859 40.6194 8.26634 40.4665 8.20771C40.3136 8.14909 40.1495 8.1256 39.9862 8.13898C39.8004 8.12654 39.6141 8.15482 39.4403 8.22186C39.2665 8.2889 39.1095 8.39307 38.9802 8.5271C38.8508 8.66112 38.7523 8.82176 38.6915 8.9978C38.6307 9.17385 38.609 9.36105 38.6281 9.54633V11.5934H38.0966V7.65674H38.5986V8.37518C38.7573 8.12957 38.9787 7.93076 39.24 7.79928C39.5012 7.6678 39.7928 7.6084 40.0846 7.62722C40.3083 7.60835 40.5333 7.64041 40.7428 7.72095C40.9523 7.8015 41.1409 7.92845 41.2943 8.09228C41.4477 8.25611 41.562 8.45257 41.6286 8.6669C41.6952 8.88124 41.7125 9.10788 41.679 9.32982Z" fill="white"/>
<path id="Vector_26" d="M44.5527 9.6349L43.6276 10.4813V11.5934H43.106V6.14114H43.6276V9.86125L45.96 7.73547H46.6096L44.9464 9.32981L46.7671 11.6327H46.1175L44.5527 9.6349Z" fill="white"/>
<path id="Vector_27" d="M135.38 38.2246C135.376 37.8695 135.444 37.5172 135.581 37.1893C135.717 36.8615 135.919 36.565 136.175 36.318C136.43 36.0711 136.733 35.8789 137.065 35.7532C137.397 35.6275 137.752 35.571 138.106 35.5871C138.457 35.575 138.806 35.6361 139.131 35.7666C139.457 35.8971 139.751 36.094 139.996 36.3449L139.652 36.6992C139.453 36.4951 139.213 36.3346 138.949 36.2278C138.685 36.1211 138.401 36.0705 138.116 36.0791C137.547 36.0791 137.002 36.3052 136.599 36.7075C136.197 37.1099 135.971 37.6556 135.971 38.2246C135.971 38.7936 136.197 39.3393 136.599 39.7417C137.002 40.144 137.547 40.3701 138.116 40.3701C138.402 40.3812 138.686 40.3317 138.951 40.2248C139.215 40.1179 139.454 39.9561 139.652 39.75L139.996 40.1043C139.75 40.3559 139.453 40.5533 139.126 40.6838C138.799 40.8143 138.449 40.875 138.097 40.8621C137.742 40.8783 137.388 40.8217 137.057 40.6959C136.725 40.5701 136.423 40.3778 136.168 40.1307C135.914 39.8836 135.713 39.587 135.577 39.2592C135.442 38.9313 135.375 38.5793 135.38 38.2246Z" fill="white"/>
<path id="Vector_28" d="M140.596 38.2246C140.579 37.6816 140.724 37.1457 141.013 36.6856C141.302 36.2256 141.722 35.8625 142.219 35.6428C142.716 35.4231 143.267 35.3568 143.802 35.4526C144.336 35.5484 144.83 35.8018 145.22 36.1802C145.61 36.5587 145.878 37.0451 145.989 37.5768C146.101 38.1086 146.051 38.6615 145.846 39.1646C145.641 39.6678 145.29 40.0982 144.839 40.4006C144.387 40.7031 143.856 40.8638 143.313 40.8621C142.959 40.8769 142.605 40.8193 142.274 40.693C141.943 40.5667 141.642 40.3743 141.387 40.1274C141.133 39.8806 140.932 39.5846 140.796 39.2575C140.66 38.9303 140.592 38.5789 140.596 38.2246ZM145.517 38.2246C145.523 37.7932 145.4 37.3698 145.165 37.0083C144.93 36.6468 144.592 36.3634 144.195 36.1942C143.798 36.0251 143.36 35.9778 142.936 36.0583C142.512 36.1389 142.122 36.3437 141.815 36.6467C141.508 36.9496 141.298 37.3371 141.211 37.7598C141.125 38.1825 141.166 38.6213 141.33 39.0204C141.494 39.4196 141.773 39.761 142.131 40.0014C142.489 40.2417 142.911 40.37 143.342 40.3701C143.625 40.3754 143.907 40.3236 144.169 40.2176C144.432 40.1117 144.671 39.9539 144.871 39.7536C145.071 39.5533 145.229 39.3146 145.335 39.0519C145.441 38.7892 145.493 38.5078 145.488 38.2246H145.517Z" fill="white"/>
<path id="Vector_29" d="M151.314 37.4176C151.314 38.5198 150.517 39.1792 149.198 39.1792H147.8V40.8228H147.259V35.6658H149.227C150.517 35.6658 151.314 36.3055 151.314 37.4176ZM150.763 37.4176C150.763 36.5811 150.221 36.1087 149.178 36.1087H147.8V38.697H149.178C150.221 38.697 150.763 38.2246 150.763 37.4176Z" fill="white"/>
<path id="Vector_30" d="M154.276 39.0316V40.8228H153.735V39.0316L151.658 35.6658H152.239L154.02 38.6183L155.802 35.6658H156.343L154.276 39.0316Z" fill="white"/>
<path id="Vector_31" d="M160.949 29.692V46.9541H129.741V29.692H160.949ZM161.933 28.7078H128.757V47.9382H161.933V28.7078Z" fill="white"/>
<path id="Vector_32" d="M157.691 62.484H104.95C102.608 62.484 100.709 64.3831 100.709 66.7257V77.7187C100.709 80.0614 102.608 81.9605 104.95 81.9605H157.691C160.034 81.9605 161.933 80.0614 161.933 77.7187V66.7257C161.933 64.3831 160.034 62.484 157.691 62.484Z" fill="#FC8A7A"/>
<path id="Vector_33" d="M115.461 74.1955L115.806 73.477C116.402 73.9648 117.151 74.2262 117.921 74.2151C119.034 74.2151 119.506 73.792 119.506 73.231C119.506 71.6563 115.569 72.6503 115.569 70.2785C115.569 69.2944 116.337 68.4382 118.03 68.4382C118.759 68.4288 119.476 68.6267 120.096 69.009L119.791 69.7372C119.264 69.4024 118.654 69.2217 118.03 69.2156C116.937 69.2156 116.465 69.6782 116.465 70.1998C116.465 71.7646 120.402 70.7804 120.402 73.1523C120.402 74.1364 119.604 74.9828 117.912 74.9828C117.028 75.0102 116.163 74.7321 115.461 74.1955Z" fill="white"/>
<path id="Vector_34" d="M127.271 68.507V74.9237H126.356V72.0795H122.665V74.9434H121.75V68.5267H122.665V71.2824H126.356V68.5267L127.271 68.507Z" fill="white"/>
<path id="Vector_35" d="M133.323 73.3196H129.879L129.17 74.9237H128.186L131.139 68.507H132.044L134.997 74.9237H134.012L133.323 73.3196ZM132.999 72.5815L131.621 69.442L130.233 72.5815H132.999Z" fill="white"/>
<path id="Vector_36" d="M140.213 74.9237L138.825 72.9554H138.421H136.837V74.9237H135.922V68.507H138.421C140.094 68.507 141.108 69.3436 141.108 70.7411C141.127 71.1877 140.999 71.6281 140.742 71.9945C140.486 72.3608 140.117 72.6328 139.691 72.7684L141.216 74.9237H140.213ZM140.213 70.7411C140.213 69.8258 139.602 69.3042 138.431 69.3042H136.866V72.1878H138.431C139.573 72.1878 140.213 71.6563 140.213 70.7411Z" fill="white"/>
<path id="Vector_37" d="M147.249 74.1266V74.9237H142.594V68.507H147.102V69.3042H143.49V71.2725H146.708V72.0795H143.49V74.1561L147.249 74.1266Z" fill="white"/>
</g>
</svg>
