<svg width="20" height="20" viewBox="0 0 20 20" fill="none" xmlns="http://www.w3.org/2000/svg">
<g id="vuesax/outline/chart">
<g id="chart">
<path id="Vector" d="M10.0003 18.9583C5.05866 18.9583 1.04199 14.9417 1.04199 10C1.04199 8.03333 1.66699 6.16666 2.85033 4.6C3.05866 4.325 3.45033 4.275 3.72533 4.48333C4.00033 4.69166 4.05866 5.08333 3.85033 5.35833C2.83366 6.7 2.29199 8.30833 2.29199 10C2.29199 14.25 5.75033 17.7083 10.0003 17.7083C14.2503 17.7083 17.7087 14.25 17.7087 10C17.7087 5.75 14.2503 2.29166 10.0003 2.29166C9.65866 2.29166 9.37533 2.00833 9.37533 1.66666C9.37533 1.325 9.65866 1.04166 10.0003 1.04166C14.942 1.04166 18.9587 5.05833 18.9587 10C18.9587 14.9417 14.942 18.9583 10.0003 18.9583Z" fill="black"/>
<path id="Vector_2" d="M10.0003 16.4583C6.44199 16.4583 3.54199 13.5583 3.54199 10C3.54199 9.65833 3.82533 9.375 4.16699 9.375C4.50866 9.375 4.79199 9.65833 4.79199 10C4.79199 12.875 7.12533 15.2083 10.0003 15.2083C12.8753 15.2083 15.2087 12.875 15.2087 10C15.2087 7.125 12.8753 4.79166 10.0003 4.79166C9.65866 4.79166 9.37533 4.50833 9.37533 4.16666C9.37533 3.825 9.65866 3.54166 10.0003 3.54166C13.5587 3.54166 16.4587 6.44166 16.4587 10C16.4587 13.5583 13.5587 16.4583 10.0003 16.4583Z" fill="black"/>
<path id="Vector_3" d="M10 13.9583C9.65833 13.9583 9.375 13.675 9.375 13.3333C9.375 12.9917 9.65833 12.7083 10 12.7083C11.4917 12.7083 12.7083 11.4917 12.7083 10C12.7083 8.50833 11.4917 7.29166 10 7.29166C9.65833 7.29166 9.375 7.00833 9.375 6.66666C9.375 6.325 9.65833 6.04166 10 6.04166C12.1833 6.04166 13.9583 7.81666 13.9583 10C13.9583 12.1833 12.1833 13.9583 10 13.9583Z" fill="black"/>
</g>
</g>
</svg>
