<svg width="20" height="20" viewBox="0 0 20 20" fill="none" xmlns="http://www.w3.org/2000/svg">
<path d="M4.16667 8.33334C3.25 8.33334 2.5 9.08334 2.5 10C2.5 10.9167 3.25 11.6667 4.16667 11.6667C5.08333 11.6667 5.83333 10.9167 5.83333 10C5.83333 9.08334 5.08333 8.33334 4.16667 8.33334Z" stroke="black"/>
<path d="M15.8337 8.33334C14.917 8.33334 14.167 9.08334 14.167 10C14.167 10.9167 14.917 11.6667 15.8337 11.6667C16.7503 11.6667 17.5003 10.9167 17.5003 10C17.5003 9.08334 16.7503 8.33334 15.8337 8.33334Z" stroke="black"/>
<path d="M9.99967 8.33334C9.08301 8.33334 8.33301 9.08334 8.33301 10C8.33301 10.9167 9.08301 11.6667 9.99967 11.6667C10.9163 11.6667 11.6663 10.9167 11.6663 10C11.6663 9.08334 10.9163 8.33334 9.99967 8.33334Z" stroke="black"/>
</svg>
